<?xml version="1.0" standalone="no"?>
<!DOCTYPE svg PUBLIC "-//W3C//DTD SVG 20010904//EN"
 "http://www.w3.org/TR/2001/REC-SVG-20010904/DTD/svg10.dtd">
<svg version="1.0" xmlns="http://www.w3.org/2000/svg"
 width="700.000000pt" height="700.000000pt" viewBox="0 0 700.000000 700.000000"
 preserveAspectRatio="xMidYMid meet">
<metadata>
Created by potrace 1.14, written by Peter Selinger 2001-2017
</metadata>
<g transform="translate(0.000000,700.000000) scale(0.100000,-0.100000)"
fill="#000000" stroke="none">
<path d="M2951 6985 c-160 -45 -277 -168 -314 -332 -16 -68 -12 -160 9 -222
14 -42 79 -176 181 -376 17 -33 70 -139 119 -235 110 -221 139 -266 227 -355
144 -145 255 -201 521 -263 26 -6 -8 -26 -290 -166 -361 -180 -432 -223 -525
-317 -112 -114 -183 -237 -225 -396 -26 -98 -26 -99 -28 -515 -1 -268 -5 -421
-12 -428 -5 -5 -238 -86 -516 -179 -279 -93 -527 -179 -551 -191 -88 -44 -170
-137 -207 -235 -32 -84 -33 -227 -1 -304 20 -49 20 -53 4 -46 -10 4 -74 29
-143 55 -159 61 -231 93 -261 116 -13 11 -114 108 -225 217 -220 216 -250 236
-361 245 -100 8 -187 -24 -257 -94 -33 -34 -70 -84 -61 -84 3 0 -3 -12 -12
-27 -14 -21 -18 -48 -18 -118 0 -134 20 -165 253 -395 313 -310 354 -337 717
-475 425 -161 831 -317 850 -325 11 -5 193 -75 405 -156 212 -81 437 -167 500
-191 63 -24 187 -71 275 -104 88 -33 169 -64 180 -69 11 -5 155 -61 320 -124
530 -202 700 -266 720 -275 11 -5 229 -89 485 -186 607 -231 641 -244 665
-255 119 -52 394 -145 460 -156 22 -3 59 -9 83 -14 23 -4 172 -7 330 -6 l287
1 57 28 c72 35 140 110 168 185 46 121 9 266 -91 356 -81 73 -116 80 -389 82
-129 1 -258 4 -286 7 -29 4 -108 27 -175 52 -68 26 -158 59 -199 75 -41 15
-241 92 -445 170 -203 78 -394 151 -422 162 -55 20 -65 33 -35 42 28 9 122
107 144 150 11 21 26 57 34 79 11 31 133 544 169 712 2 11 22 99 45 195 61
261 62 273 63 420 0 242 -82 473 -239 670 -65 82 -99 113 -376 344 l-228 190
28 12 c15 7 135 61 267 119 132 59 264 118 293 131 29 13 54 24 56 24 2 0 44
18 93 41 48 23 102 47 118 54 17 7 50 22 75 33 l45 20 37 -27 c20 -14 204
-157 410 -317 205 -160 411 -321 458 -357 47 -37 90 -71 96 -76 6 -5 31 -19
55 -32 252 -128 551 8 625 285 18 69 11 188 -16 259 -33 87 -90 149 -251 275
-79 62 -151 118 -159 125 -8 7 -105 82 -215 167 -110 85 -207 160 -215 167
-20 16 -463 361 -560 436 -41 32 -114 88 -161 125 -48 37 -101 78 -119 92 -18
14 -38 30 -44 35 -6 6 -57 45 -113 88 -215 164 -393 255 -623 320 -100 29
-118 33 -455 100 l-259 52 -186 369 c-194 387 -224 433 -313 487 -99 60 -244
82 -346 54z m767 -3687 c114 -95 215 -180 226 -188 10 -8 26 -22 35 -30 9 -8
68 -58 131 -110 133 -109 129 -105 159 -148 44 -63 40 -115 -34 -432 -37 -157
-68 -292 -70 -300 -2 -8 -10 -45 -19 -81 -8 -37 -17 -78 -20 -90 -3 -13 -21
-94 -41 -179 -32 -133 -36 -166 -32 -235 3 -44 8 -90 12 -102 7 -21 3 -20 -87
14 -51 19 -106 41 -123 48 -16 7 -86 34 -155 60 -159 60 -538 205 -790 302
-107 42 -213 82 -235 90 -22 7 -49 18 -60 23 -11 5 -117 46 -235 90 -437 166
-474 180 -467 186 1 1 267 90 590 198 323 107 611 207 640 222 173 86 302 254
343 444 10 50 16 127 16 233 0 86 2 157 5 157 2 0 98 -78 211 -172z"/>
<path d="M5805 6994 c-11 -3 -40 -10 -65 -16 -93 -22 -208 -88 -283 -162 -86
-85 -99 -102 -139 -186 -46 -96 -67 -188 -66 -293 3 -278 171 -514 438 -612
100 -37 279 -45 380 -16 198 57 341 174 424 346 86 179 88 403 4 575 -15 30
-80 127 -105 155 -65 75 -187 151 -297 186 -59 19 -246 34 -291 23z"/>
</g>
</svg>
